<svg width="464" height="270" viewBox="0 0 464 270" fill="none" xmlns="http://www.w3.org/2000/svg">
<g clip-path="url(#clip0_2692_77725)">
<path d="M0 16C0 7.16344 7.16344 0 16 0H448C456.837 0 464 7.16344 464 16V254C464 262.837 456.837 270 448 270H16C7.16345 270 0 262.837 0 254V16Z" fill="#190A21"/>
<g filter="url(#filter0_f_2692_77725)" style="mix-blend-mode:plus-lighter">
<ellipse cx="-26" cy="262" rx="42" ry="55" fill="#479FFF"/>
</g>
<g filter="url(#filter1_f_2692_77725)" style="mix-blend-mode:plus-lighter">
<circle cx="504" cy="-49" r="100" fill="#27B2FF"/>
</g>
<g filter="url(#filter2_f_2692_77725)" style="mix-blend-mode:plus-lighter">
<circle cx="502" cy="-32" r="100" fill="white" fill-opacity="0.28"/>
</g>
</g>
<defs>
<filter id="filter0_f_2692_77725" x="-218" y="57" width="384" height="410" filterUnits="userSpaceOnUse" color-interpolation-filters="sRGB">
<feFlood flood-opacity="0" result="BackgroundImageFix"/>
<feBlend mode="normal" in="SourceGraphic" in2="BackgroundImageFix" result="shape"/>
<feGaussianBlur stdDeviation="75" result="effect1_foregroundBlur_2692_77725"/>
</filter>
<filter id="filter1_f_2692_77725" x="244" y="-309" width="520" height="520" filterUnits="userSpaceOnUse" color-interpolation-filters="sRGB">
<feFlood flood-opacity="0" result="BackgroundImageFix"/>
<feBlend mode="normal" in="SourceGraphic" in2="BackgroundImageFix" result="shape"/>
<feGaussianBlur stdDeviation="80" result="effect1_foregroundBlur_2692_77725"/>
</filter>
<filter id="filter2_f_2692_77725" x="242" y="-292" width="520" height="520" filterUnits="userSpaceOnUse" color-interpolation-filters="sRGB">
<feFlood flood-opacity="0" result="BackgroundImageFix"/>
<feBlend mode="normal" in="SourceGraphic" in2="BackgroundImageFix" result="shape"/>
<feGaussianBlur stdDeviation="80" result="effect1_foregroundBlur_2692_77725"/>
</filter>
<clipPath id="clip0_2692_77725">
<path d="M0 16C0 7.16344 7.16344 0 16 0H448C456.837 0 464 7.16344 464 16V254C464 262.837 456.837 270 448 270H16C7.16345 270 0 262.837 0 254V16Z" fill="white"/>
</clipPath>
</defs>
</svg>
