<svg width="1920" height="815" viewBox="0 0 1920 815" fill="none" xmlns="http://www.w3.org/2000/svg">
<g clip-path="url(#clip0_2671_84032)">
<rect width="1920" height="815" fill="#110816"/>
<g opacity="0.06">
<mask id="mask0_2671_84032" style="mask-type:alpha" maskUnits="userSpaceOnUse" x="-723" y="-195" width="2725" height="1864">
<rect width="2725" height="1864" transform="translate(-723 -195)" fill="url(#paint0_radial_2671_84032)"/>
</mask>
<g mask="url(#mask0_2671_84032)">
<path d="M1705.28 984.543L220.03 -742.551L-426 1721.34L1705.28 984.543Z" stroke="#C970FF" stroke-width="1.5"/>
<path d="M1690.56 930.165L163.803 -668.117L-340.331 1755.66L1690.56 930.165Z" stroke="#C970FF" stroke-width="1.5"/>
<path d="M1672.82 878.055L113.554 -591.837L-254.604 1783.6L1672.82 878.055Z" stroke="#C970FF" stroke-width="1.5"/>
<path d="M1652.25 828.386L69.3135 -514.143L-169.233 1805.25L1652.25 828.386Z" stroke="#C970FF" stroke-width="1.5"/>
<path d="M1629.06 781.309L31.0819 -435.468L-84.6226 1820.72L1629.06 781.309Z" stroke="#C970FF" stroke-width="1.5"/>
<path d="M1603.46 736.968L-1.15907 -356.235V1830.17L1603.46 736.968Z" stroke="#C970FF" stroke-width="1.5"/>
<path d="M1575.65 695.489L-27.4738 -276.866L80.7659 1833.76L1575.65 695.489Z" stroke="#C970FF" stroke-width="1.5"/>
<path d="M1545.87 656.979L-47.9351 -197.775L160.793 1831.69L1545.87 656.979Z" stroke="#C970FF" stroke-width="1.5"/>
<path d="M1514.33 621.533L-62.653 -119.367L238.568 1824.17L1514.33 621.533Z" stroke="#C970FF" stroke-width="1.5"/>
<path d="M1481.28 589.23L-71.7528 -42.032L313.762 1811.45L1481.28 589.23Z" stroke="#C970FF" stroke-width="1.5"/>
<path d="M1446.95 560.129L-75.3883 33.8455L386.062 1793.77L1446.95 560.129Z" stroke="#C970FF" stroke-width="1.5"/>
<path d="M1411.58 534.277L-73.7428 107.9L455.168 1771.42L1411.58 534.277Z" stroke="#C970FF" stroke-width="1.5"/>
<path d="M1375.39 511.702L-67.0134 179.781L520.808 1744.69L1375.39 511.702Z" stroke="#C970FF" stroke-width="1.5"/>
<path d="M1338.64 492.412L-55.4239 249.149L582.729 1713.9L1338.64 492.412Z" stroke="#C970FF" stroke-width="1.5"/>
<path d="M1301.55 476.409L-39.2127 315.692L640.702 1679.36L1301.55 476.409Z" stroke="#C970FF" stroke-width="1.5"/>
<path d="M1264.36 463.668L-18.6485 379.108L694.514 1641.43L1264.36 463.668Z" stroke="#C970FF" stroke-width="1.5"/>
<path d="M1227.3 454.152L5.99832 439.119L743.989 1600.45L1227.3 454.152Z" stroke="#C970FF" stroke-width="1.5"/>
<path d="M1190.59 447.813L34.4291 495.473L788.965 1556.78L1190.59 447.813Z" stroke="#C970FF" stroke-width="1.5"/>
<path d="M1154.47 444.578L66.3358 547.929L829.309 1510.78L1154.47 444.578Z" stroke="#C970FF" stroke-width="1.5"/>
<path d="M1119.14 444.37L101.399 596.282L864.917 1462.85L1119.14 444.37Z" stroke="#C970FF" stroke-width="1.5"/>
<path d="M1084.8 447.088L139.273 640.341L895.696 1413.35L1084.8 447.088Z" stroke="#C970FF" stroke-width="1.5"/>
<path d="M1051.68 452.626L179.631 679.947L921.607 1362.68L1051.68 452.626Z" stroke="#C970FF" stroke-width="1.5"/>
<path d="M1019.94 460.855L222.101 714.959L942.602 1311.2L1019.94 460.855Z" stroke="#C970FF" stroke-width="1.5"/>
<path d="M989.777 471.642L266.333 745.267L958.686 1259.32L989.777 471.642Z" stroke="#C970FF" stroke-width="1.5"/>
<path d="M961.367 484.839L311.964 770.786L969.883 1207.41L961.367 484.839Z" stroke="#C970FF" stroke-width="1.5"/>
<path d="M934.864 500.283L358.62 791.453L976.237 1155.85L934.864 500.283Z" stroke="#C970FF" stroke-width="1.5"/>
<path d="M910.419 517.807L405.931 807.239L977.82 1105.02L910.419 517.807Z" stroke="#C970FF" stroke-width="1.5"/>
<path d="M888.167 537.23L453.523 818.134L974.728 1055.28L888.167 537.23Z" stroke="#C970FF" stroke-width="1.5"/>
<path d="M868.235 558.366L501.03 824.16L967.086 1006.99L868.235 558.366Z" stroke="#C970FF" stroke-width="1.5"/>
<path d="M850.734 581.014L548.086 825.359L955.041 960.487L850.734 581.014Z" stroke="#C970FF" stroke-width="1.5"/>
<path d="M835.756 604.974L594.323 821.806L938.754 916.12L835.756 604.974Z" stroke="#C970FF" stroke-width="1.5"/>
<path d="M823.389 630.038L639.391 813.595L918.423 874.206L823.389 630.038Z" stroke="#C970FF" stroke-width="1.5"/>
<path d="M813.699 655.987L682.94 800.847L894.255 835.05L813.699 655.987Z" stroke="#C970FF" stroke-width="1.5"/>
<path d="M806.741 682.608L724.633 783.712L866.484 798.948L806.741 682.608Z" stroke="#C970FF" stroke-width="1.5"/>
<path d="M802.545 709.676L764.136 762.354L835.355 766.168L802.545 709.676Z" stroke="#C970FF" stroke-width="1.5"/>
</g>
</g>
<g filter="url(#filter0_f_2671_84032)">
<circle cx="294" cy="-58" r="166" fill="#8311AD" fill-opacity="0.53"/>
</g>
<g filter="url(#filter1_f_2671_84032)">
<circle cx="889" cy="1036" r="347" fill="#9207C4" fill-opacity="0.38"/>
</g>
<g filter="url(#filter2_f_2671_84032)">
<circle cx="924" cy="-121" r="166" fill="#8311AD" fill-opacity="0.53"/>
</g>
<g filter="url(#filter3_f_2671_84032)">
<circle cx="1822" cy="-89" r="166" fill="#8311AD" fill-opacity="0.53"/>
</g>
</g>
<defs>
<filter id="filter0_f_2671_84032" x="-272" y="-624" width="1132" height="1132" filterUnits="userSpaceOnUse" color-interpolation-filters="sRGB">
<feFlood flood-opacity="0" result="BackgroundImageFix"/>
<feBlend mode="normal" in="SourceGraphic" in2="BackgroundImageFix" result="shape"/>
<feGaussianBlur stdDeviation="200" result="effect1_foregroundBlur_2671_84032"/>
</filter>
<filter id="filter1_f_2671_84032" x="142" y="289" width="1494" height="1494" filterUnits="userSpaceOnUse" color-interpolation-filters="sRGB">
<feFlood flood-opacity="0" result="BackgroundImageFix"/>
<feBlend mode="normal" in="SourceGraphic" in2="BackgroundImageFix" result="shape"/>
<feGaussianBlur stdDeviation="200" result="effect1_foregroundBlur_2671_84032"/>
</filter>
<filter id="filter2_f_2671_84032" x="358" y="-687" width="1132" height="1132" filterUnits="userSpaceOnUse" color-interpolation-filters="sRGB">
<feFlood flood-opacity="0" result="BackgroundImageFix"/>
<feBlend mode="normal" in="SourceGraphic" in2="BackgroundImageFix" result="shape"/>
<feGaussianBlur stdDeviation="200" result="effect1_foregroundBlur_2671_84032"/>
</filter>
<filter id="filter3_f_2671_84032" x="1256" y="-655" width="1132" height="1132" filterUnits="userSpaceOnUse" color-interpolation-filters="sRGB">
<feFlood flood-opacity="0" result="BackgroundImageFix"/>
<feBlend mode="normal" in="SourceGraphic" in2="BackgroundImageFix" result="shape"/>
<feGaussianBlur stdDeviation="200" result="effect1_foregroundBlur_2671_84032"/>
</filter>
<radialGradient id="paint0_radial_2671_84032" cx="0" cy="0" r="1" gradientUnits="userSpaceOnUse" gradientTransform="translate(1362.5 932) rotate(90) scale(932 1362.5)">
<stop/>
<stop offset="1" stop-opacity="0"/>
</radialGradient>
<clipPath id="clip0_2671_84032">
<rect width="1920" height="815" fill="white"/>
</clipPath>
</defs>
</svg>
